<svg version="1.1" baseProfile="full" xmlns="http://www.w3.org/2000/svg" xmlns:xlink="http://www.w3.org/1999/xlink" xmlns:ev="http://www.w3.org/2001/xml-events" xml:space="preserve" x="0px" y="0px" width="61px" height="51px"  viewBox="0 0 61 51" preserveAspectRatio="none" shape-rendering="geometricPrecision"><path fill="#d4d2d2" d="M56.676,51.000 C56.676,51.000 4.322,51.000 4.322,51.000 C1.938,51.000 -0.001,49.076 -0.001,46.710 C-0.001,46.710 -0.001,42.243 -0.001,42.243 C-0.001,42.243 -0.001,42.243 -0.001,42.242 C-0.001,42.242 -0.001,4.289 -0.001,4.289 C-0.001,1.924 1.938,-0.000 4.322,-0.000 C4.322,-0.000 56.676,-0.000 56.676,-0.000 C59.060,-0.000 60.999,1.924 60.999,4.289 C60.999,4.289 60.999,46.710 60.999,46.710 C60.999,49.076 59.060,51.000 56.676,51.000 ZM4.322,49.042 C4.322,49.042 56.676,49.042 56.676,49.042 C57.972,49.042 59.026,47.996 59.026,46.710 C59.026,46.710 59.026,28.821 59.026,28.821 C58.983,28.790 58.933,28.773 58.894,28.734 C58.894,28.734 46.870,16.803 46.870,16.803 C46.870,16.803 22.739,40.747 22.739,40.747 C22.554,40.930 22.304,41.033 22.042,41.033 C21.780,41.033 21.529,40.930 21.344,40.747 C21.344,40.747 12.616,32.086 12.616,32.086 C12.616,32.086 1.972,42.648 1.972,42.648 C1.972,42.648 1.972,46.710 1.972,46.710 C1.972,47.996 3.026,49.042 4.322,49.042 ZM56.676,1.958 C56.676,1.958 4.322,1.958 4.322,1.958 C3.026,1.958 1.972,3.004 1.972,4.289 C1.972,4.289 1.972,39.880 1.972,39.880 C1.972,39.880 11.919,30.010 11.919,30.010 C12.104,29.826 12.355,29.723 12.616,29.723 C12.878,29.723 13.129,29.826 13.314,30.010 C13.314,30.010 22.042,38.670 22.042,38.670 C22.042,38.670 46.173,14.727 46.173,14.727 C46.358,14.543 46.609,14.440 46.870,14.440 C47.132,14.440 47.383,14.543 47.568,14.727 C47.568,14.727 59.026,26.097 59.026,26.097 C59.026,26.097 59.026,4.289 59.026,4.289 C59.026,3.004 57.972,1.958 56.676,1.958 ZM18.252,22.218 C14.474,22.218 11.400,19.168 11.400,15.419 C11.400,11.670 14.474,8.619 18.252,8.619 C22.031,8.619 25.105,11.670 25.105,15.419 C25.105,19.168 22.031,22.218 18.252,22.218 ZM18.252,10.577 C15.562,10.577 13.373,12.749 13.373,15.419 C13.373,18.089 15.562,20.261 18.252,20.261 C20.943,20.261 23.132,18.089 23.132,15.419 C23.132,12.749 20.943,10.577 18.252,10.577 Z" fill-rule="evenodd"></path></svg>